<svg xmlns="http://www.w3.org/2000/svg" xmlns:xlink="http://www.w3.org/1999/xlink" width="256" zoomAndPan="magnify" viewBox="0 0 192 191.999996" height="256" preserveAspectRatio="xMidYMid meet" version="1.0"><defs><clipPath id="8525360ff2"><path d="M 32.1875 147.15625 L 159.964844 147.15625 L 159.964844 192 L 32.1875 192 Z M 32.1875 147.15625 " clip-rule="nonzero"/></clipPath><clipPath id="d0f59ee575"><path d="M 15.574219 19.199219 L 176.355469 19.199219 L 176.355469 171.832031 L 15.574219 171.832031 Z M 15.574219 19.199219 " clip-rule="nonzero"/></clipPath></defs><path fill="#f4c9b7" d="M 146.761719 136.8125 C 134.113281 149.0625 116.894531 156.597656 97.914062 156.597656 C 76.902344 156.597656 58.046875 147.363281 45.167969 132.726562 L 45.167969 89.363281 C 57.960938 91.945312 75.988281 93.902344 95.964844 93.902344 C 115.9375 93.902344 133.964844 91.945312 146.761719 89.363281 L 146.761719 136.8125 " fill-opacity="1" fill-rule="nonzero"/><g clip-path="url(#8525360ff2)"><path fill="#d12c23" d="M 159.515625 258.15625 C 159.515625 279.648438 159.515625 290.132812 159.515625 290.132812 C 159.515625 298.71875 131.0625 305.679688 95.964844 305.679688 C 60.867188 305.679688 32.414062 298.71875 32.414062 290.132812 C 32.414062 290.132812 32.414062 279.648438 32.414062 258.15625 C 32.414062 237.589844 39.21875 179.859375 63.289062 147.472656 C 73.507812 153.28125 85.324219 156.597656 97.914062 156.597656 C 109.367188 156.597656 120.179688 153.847656 129.734375 148.980469 C 152.914062 181.621094 159.515625 237.902344 159.515625 258.15625 " fill-opacity="1" fill-rule="nonzero"/></g><g clip-path="url(#d0f59ee575)"><path fill="#302f2f" d="M 83.511719 108.429688 L 52.90625 102.828125 L 52.597656 104.523438 L 83.203125 110.121094 Z M 139.261719 104.523438 L 138.953125 102.828125 L 108.351562 108.429688 L 108.660156 110.121094 Z M 176.355469 74.070312 L 176.355469 141.847656 C 176.355469 158.21875 163.105469 171.484375 146.761719 171.484375 L 146.761719 89.363281 C 133.964844 91.945312 115.9375 93.902344 95.964844 93.902344 C 75.988281 93.902344 57.960938 91.945312 45.167969 89.363281 L 45.167969 171.484375 C 28.824219 171.484375 15.574219 158.21875 15.574219 141.847656 L 15.574219 74.070312 C 15.574219 43.769531 40.105469 19.203125 70.367188 19.203125 L 121.5625 19.203125 C 151.824219 19.203125 176.355469 43.769531 176.355469 74.070312 " fill-opacity="1" fill-rule="nonzero"/></g><path fill="#f791a3" d="M 98.398438 229.589844 C 98.398438 230.726562 97.480469 231.644531 96.347656 231.644531 C 95.214844 231.644531 94.296875 230.726562 94.296875 229.589844 C 94.296875 228.457031 95.214844 227.539062 96.347656 227.539062 C 97.480469 227.539062 98.398438 228.457031 98.398438 229.589844 Z M 104.921875 226.515625 C 104.921875 227.648438 104.003906 228.566406 102.871094 228.566406 C 101.738281 228.566406 100.820312 227.648438 100.820312 226.515625 C 100.820312 225.382812 101.738281 224.460938 102.871094 224.460938 C 104.003906 224.460938 104.921875 225.382812 104.921875 226.515625 Z M 98.867188 222.296875 C 98.867188 223.429688 97.949219 224.347656 96.820312 224.347656 C 95.6875 224.347656 94.769531 223.429688 94.769531 222.296875 C 94.769531 221.160156 95.6875 220.242188 96.820312 220.242188 C 97.949219 220.242188 98.867188 221.160156 98.867188 222.296875 Z M 100.898438 279.300781 C 97.433594 286.109375 99.457031 291.046875 99.457031 291.046875 L 103.878906 290.347656 L 104.898438 293.886719 C 104.898438 293.886719 111.34375 293.925781 114.710938 285.710938 C 118.078125 277.496094 114.003906 271.734375 113.648438 271.550781 C 113.648438 271.550781 104.585938 272.046875 100.898438 279.300781 Z M 76.128906 241.800781 L 80.933594 242.917969 L 80.371094 246.71875 C 90.09375 249.757812 94.675781 239.921875 94.675781 239.921875 C 96.394531 247.765625 104.765625 251.933594 105.039062 252.460938 C 105.316406 252.980469 107.863281 246.898438 107.863281 246.898438 L 111.734375 248.066406 C 116.460938 241.109375 110.367188 233.320312 110.367188 233.320312 C 118.769531 234.335938 123.734375 226.203125 123.355469 226.554688 C 122.976562 226.914062 120.367188 223.816406 120.367188 223.816406 L 122.789062 219.339844 C 118.148438 215.515625 107.253906 216.695312 107.253906 216.695312 C 110.628906 210.121094 105.714844 201.292969 105.714844 201.292969 L 102.03125 203.960938 L 98.480469 200.539062 C 92.359375 205.988281 91.445312 213.523438 91.445312 213.523438 C 81.816406 207.546875 75.898438 211.242188 75.898438 211.242188 L 77.652344 215.925781 L 72.855469 216.867188 C 74.664062 224.199219 83.320312 228.527344 83.320312 228.527344 C 76.335938 233.507812 76.128906 241.800781 76.128906 241.800781 Z M 63.78125 127.820312 C 63.78125 123.1875 55.570312 119.394531 45.167969 119.070312 L 45.167969 132.726562 C 46.261719 133.96875 47.402344 135.171875 48.582031 136.335938 C 57.3125 135.382812 63.78125 131.933594 63.78125 127.820312 Z M 146.761719 119.085938 C 136.59375 119.515625 128.640625 123.261719 128.640625 127.820312 C 128.640625 132.378906 136.59375 136.125 146.761719 136.554688 Z M 33.339844 241.605469 C 33.441406 240.550781 33.574219 239.28125 33.851562 236.761719 C 34.160156 234.097656 34.515625 231.316406 34.9375 228.433594 C 35.980469 227.300781 37.167969 226.039062 38.523438 224.621094 C 44.191406 218.683594 53.648438 209.210938 66.527344 197.78125 C 73.222656 191.84375 81.113281 185.144531 89.980469 178.152344 C 79.183594 169.957031 68.425781 162.496094 57.777344 155.804688 C 59.035156 153.675781 60.355469 151.613281 61.730469 149.632812 C 73.058594 156.753906 84.5 164.722656 95.96875 173.5 C 106.332031 165.570312 117.851562 157.398438 130.199219 149.636719 C 131.582031 151.617188 132.902344 153.691406 134.167969 155.832031 C 79.832031 190.074219 33.429688 240.683594 33.339844 241.605469 " fill-opacity="1" fill-rule="nonzero"/></svg>