<svg xmlns="http://www.w3.org/2000/svg" xmlns:xlink="http://www.w3.org/1999/xlink" width="256" zoomAndPan="magnify" viewBox="0 0 192 191.999996" height="256" preserveAspectRatio="xMidYMid meet" version="1.0"><defs><clipPath id="4e1a6dc31f"><path d="M 53.175781 85.753906 L 138.761719 85.753906 L 138.761719 191.984375 L 53.175781 191.984375 Z M 53.175781 85.753906 " clip-rule="nonzero"/></clipPath><clipPath id="789182a8bf"><path d="M 42.046875 0 L 149.738281 0 L 149.738281 102.289062 L 42.046875 102.289062 Z M 42.046875 0 " clip-rule="nonzero"/></clipPath></defs><path fill="#f4c9b7" d="M 129.914062 78.820312 C 121.445312 87.027344 109.910156 92.078125 97.195312 92.078125 C 83.121094 92.078125 70.492188 85.890625 61.867188 76.078125 L 61.867188 47.019531 C 70.4375 48.75 82.511719 50.0625 95.890625 50.0625 C 109.269531 50.0625 121.34375 48.75 129.914062 47.019531 L 129.914062 78.820312 " fill-opacity="1" fill-rule="nonzero"/><g clip-path="url(#4e1a6dc31f)"><path fill="#d12c23" d="M 138.457031 160.136719 C 138.457031 174.542969 138.457031 181.566406 138.457031 181.566406 C 138.457031 187.320312 119.398438 191.984375 95.890625 191.984375 C 72.382812 191.984375 53.328125 187.320312 53.328125 181.566406 C 53.328125 181.566406 53.328125 174.542969 53.328125 160.136719 C 53.328125 146.355469 57.882812 107.667969 74.007812 85.960938 C 80.851562 89.855469 88.765625 92.078125 97.195312 92.078125 C 104.871094 92.078125 112.109375 90.234375 118.511719 86.972656 C 134.039062 108.847656 138.457031 146.566406 138.457031 160.136719 " fill-opacity="1" fill-rule="nonzero"/></g><path fill="#886242" d="M 138.457031 176.695312 C 138.457031 178.71875 138.457031 180.109375 138.457031 180.871094 C 135.949219 179.703125 133.933594 178.808594 132.941406 178.40625 C 128.90625 176.773438 124.253906 170.230469 124.253906 170.230469 L 111.21875 168.867188 L 108.359375 170.054688 C 109.113281 171.53125 110.070312 174.644531 108.449219 178.605469 C 108.445312 178.617188 108.4375 178.628906 108.433594 178.644531 C 107.308594 176.394531 107.515625 173.246094 107.515625 173.246094 C 107.332031 175.742188 105.84375 178.355469 105.84375 178.355469 C 105.285156 176.863281 105.507812 173.65625 105.507812 173.65625 C 104.652344 175.445312 101.710938 177.125 101.710938 177.125 C 101.898438 175.035156 104.28125 171.753906 104.28125 171.753906 C 104.253906 171.765625 104.226562 171.773438 104.195312 171.785156 L 100.0625 173.5 C 100.0625 173.5 100.226562 173.367188 100.53125 173.136719 C 99.972656 173.359375 99.679688 173.484375 99.675781 173.488281 C 101.851562 170.191406 105.773438 169.367188 107.199219 169.171875 C 111.277344 167.265625 116.695312 165.617188 122.375 166.414062 C 122.375 166.414062 107.953125 145.695312 107.136719 145.421875 C 106.320312 145.148438 90.539062 142.96875 90.539062 142.96875 L 110.128906 142.96875 C 110.128906 142.96875 131.082031 170.789062 135.433594 174.597656 C 136.089844 175.171875 137.140625 175.890625 138.457031 176.695312 " fill-opacity="1" fill-rule="nonzero"/><g clip-path="url(#789182a8bf)"><path fill="#302f2f" d="M 87.550781 59.796875 L 67.050781 56.046875 L 66.84375 57.179688 L 87.34375 60.929688 Z M 124.894531 57.179688 L 124.6875 56.046875 L 104.1875 59.796875 L 104.394531 60.929688 Z M 149.738281 36.773438 L 149.738281 82.195312 C 149.738281 93.164062 140.863281 102.054688 129.914062 102.054688 L 129.914062 47.019531 C 121.34375 48.75 109.269531 50.0625 95.890625 50.0625 C 82.511719 50.0625 70.4375 48.75 61.867188 47.019531 L 61.867188 102.054688 C 50.921875 102.054688 42.046875 93.164062 42.046875 82.195312 L 42.046875 36.773438 C 42.046875 16.464844 58.476562 0 78.746094 0 L 113.039062 0 C 133.304688 0 149.738281 16.464844 149.738281 36.773438 " fill-opacity="1" fill-rule="nonzero"/></g><path fill="#f791a3" d="M 97.519531 140.996094 C 97.519531 141.753906 96.90625 142.371094 96.148438 142.371094 C 95.390625 142.371094 94.777344 141.753906 94.777344 140.996094 C 94.777344 140.234375 95.390625 139.621094 96.148438 139.621094 C 96.90625 139.621094 97.519531 140.234375 97.519531 140.996094 Z M 101.890625 138.933594 C 101.890625 139.691406 101.277344 140.308594 100.519531 140.308594 C 99.757812 140.308594 99.144531 139.691406 99.144531 138.933594 C 99.144531 138.175781 99.757812 137.558594 100.519531 137.558594 C 101.277344 137.558594 101.890625 138.175781 101.890625 138.933594 Z M 97.835938 136.105469 C 97.835938 136.867188 97.222656 137.480469 96.464844 137.480469 C 95.707031 137.480469 95.089844 136.867188 95.089844 136.105469 C 95.089844 135.34375 95.707031 134.730469 96.464844 134.730469 C 97.222656 134.730469 97.835938 135.34375 97.835938 136.105469 Z M 99.195312 174.308594 C 96.875 178.871094 98.230469 182.179688 98.230469 182.179688 L 101.191406 181.710938 L 101.875 184.085938 C 101.875 184.085938 106.195312 184.109375 108.449219 178.605469 C 110.703125 173.097656 107.972656 169.238281 107.738281 169.113281 C 107.738281 169.113281 101.667969 169.449219 99.195312 174.308594 Z M 82.605469 149.179688 L 85.824219 149.925781 L 85.445312 152.472656 C 91.960938 154.507812 95.027344 147.917969 95.027344 147.917969 C 96.179688 153.175781 101.785156 155.96875 101.96875 156.320312 C 102.15625 156.671875 103.863281 152.59375 103.863281 152.59375 L 106.453125 153.375 C 109.621094 148.714844 105.539062 143.496094 105.539062 143.496094 C 111.167969 144.175781 114.492188 138.726562 114.238281 138.960938 C 113.984375 139.199219 112.238281 137.125 112.238281 137.125 L 113.859375 134.125 C 110.75 131.5625 103.453125 132.351562 103.453125 132.351562 C 105.714844 127.949219 102.421875 122.03125 102.421875 122.03125 L 99.957031 123.816406 L 97.578125 121.523438 C 93.476562 125.179688 92.867188 130.226562 92.867188 130.226562 C 86.417969 126.222656 82.453125 128.695312 82.453125 128.695312 L 83.625 131.839844 L 80.414062 132.46875 C 81.625 137.382812 87.421875 140.28125 87.421875 140.28125 C 82.742188 143.621094 82.605469 149.179688 82.605469 149.179688 Z M 74.335938 72.792969 C 74.335938 69.6875 68.835938 67.148438 61.867188 66.929688 L 61.867188 76.078125 C 62.601562 76.914062 63.363281 77.71875 64.15625 78.5 C 70.003906 77.863281 74.335938 75.550781 74.335938 72.792969 Z M 129.914062 66.941406 C 123.105469 67.226562 117.777344 69.738281 117.777344 72.792969 C 117.777344 75.847656 123.105469 78.359375 129.914062 78.644531 Z M 53.945312 149.046875 C 54.015625 148.339844 54.101562 147.488281 54.289062 145.800781 C 54.496094 144.015625 54.734375 142.148438 55.015625 140.21875 C 55.714844 139.460938 56.511719 138.613281 57.417969 137.664062 C 61.214844 133.6875 67.546875 127.335938 76.175781 119.679688 C 80.65625 115.699219 85.945312 111.210938 91.882812 106.523438 C 84.652344 101.03125 77.445312 96.03125 70.3125 91.546875 C 71.15625 90.117188 72.039062 88.738281 72.960938 87.410156 C 80.550781 92.183594 88.210938 97.523438 95.894531 103.40625 C 102.835938 98.089844 110.550781 92.613281 118.820312 87.410156 C 119.746094 88.742188 120.632812 90.128906 121.480469 91.566406 C 85.085938 114.511719 54.003906 148.429688 53.945312 149.046875 " fill-opacity="1" fill-rule="nonzero"/></svg>